<svg viewBox="0 0 100 100" xmlns="http://www.w3.org/2000/svg">
  <defs>
    <mask id="icon-mask">
      <rect x="0" y="0" width="100" height="100" fill="white" />
      <text x="50" y="52" text-anchor="middle" dominant-baseline="middle" fill="black" font-size="24" font-weight="900" font-family="Inter, sans-serif" font-style="italic" style="letter-spacing: -1px;">OX</text>
      <line x1="38" y1="44" x2="15" y2="44" stroke="black" stroke-width="2.5" />
      <line x1="62" y1="58" x2="88" y2="58" stroke="black" stroke-width="2.5" />
      <circle cx="82" cy="48" r="3" fill="black" />
    </mask>
  </defs>
  <path fill="#0f172a" d="M50 20 C35 20 20 30 15 50 L5 30 L5 70 L15 50 C20 70 35 80 50 80 C70 80 85 70 90 50 C85 30 70 20 50 20 Z M50 20 C55 10 65 5 75 5 C65 5 55 10 50 20 Z M50 80 C55 90 65 95 75 95 C65 95 55 90 50 80 Z" mask="url(#icon-mask)" />
</svg>
